Coordinates
version=1
nRows=17
nColumns=36
inDegrees=yes

Units are S.I. units (second, meters, Newtons, ...)
If the header above contains a line with 'inDegrees', this indicates whether rotational values are in degrees (yes) or radians (no).

endheader
time	pelvis_tilt	pelvis_list	pelvis_rotation	pelvis_tx	pelvis_ty	pelvis_tz	hip_flexion_r	hip_adduction_r	hip_rotation_r	knee_angle_r	knee_angle_r_beta	ankle_angle_r	subtalar_angle_r	mtp_angle_r	hip_flexion_l	hip_adduction_l	hip_rotation_l	knee_angle_l	knee_angle_l_beta	ankle_angle_l	subtalar_angle_l	mtp_angle_l	lumbar_extension	lumbar_bending	lumbar_rotation	arm_flex_r	arm_add_r	arm_rot_r	elbow_flex_r	pro_sup_r	arm_flex_l	arm_add_l	arm_rot_l	elbow_flex_l	pro_sup_l
      0.00000000	      3.08263853	     -8.82823273	      4.25244599	      0.69900087	      1.02891448	      0.85187116	     19.98369196	      8.04626681	     -8.25278717	     18.04662149	      0.31497296	      0.46844898	     -5.87844577	     -7.20396569	    -12.46793068	    -13.15752939	     -0.83100335	     39.08730132	      0.68220210	      0.16228664	     -5.59523344	     -7.20396569	    -14.48821299	     13.80765674	     -3.87253550	      1.08895973	    -12.76988656	    -10.52155170	     19.63646367	     83.97245387	     13.18403803	    -12.44230095	     -4.35121560	     48.55401260	     82.75208293
      0.01666670	      4.51855347	     -8.54126555	      2.96469998	      0.70106242	      1.02815239	      0.85260679	     17.82157798	      8.46857805	     -8.16018064	     19.65513947	      0.34304690	      1.12726023	     -9.48834275	     -7.21442327	    -11.46601517	    -12.44845673	     -0.46566822	     44.63346116	      0.77900085	     -5.88827459	     -7.79108469	     -7.21442327	    -16.32926644	     13.70845041	     -2.30380191	      1.54856243	    -12.33885304	    -11.42483398	     20.42468802	     83.34038603	     12.47790537	    -11.79534143	     -5.58880462	     50.66949138	     82.22975037
      0.03333330	      5.03661044	     -8.55669763	      2.57383523	      0.70326132	      1.02843295	      0.85444083	     16.64581740	      8.52209401	     -7.89270521	     20.89449911	      0.36467780	      2.11737506	     -9.90424635	     -7.31605099	     -9.76161951	    -12.57337825	      0.21396848	     49.17550623	      0.85827450	     -8.96678209	     -5.96005030	     -7.31605099	    -16.40827774	     13.94490654	     -1.32448013	      1.43729732	    -12.23200424	    -12.57749604	     20.74176246	     78.80378561	     11.77454455	    -10.97015581	     -6.14862928	     50.73031373	     78.42002422
      0.05000000	      5.16571707	     -8.99221133	      2.78109906	      0.70499173	      1.03042672	      0.85650009	     15.35289716	      9.14048641	     -8.11162714	     21.15947370	      0.36930248	      3.41489845	     -9.97862162	     -7.31953858	     -7.63837491	    -13.15687522	      0.92796130	     53.12117660	      0.92713943	    -11.13001372	     -6.14123377	     -7.31953858	    -16.50191035	     14.60383862	     -0.45886443	      1.56589784	    -12.42434973	    -12.40100677	     20.73339602	     78.75054358	     10.75112407	    -10.11421002	     -6.13868437	     50.39848764	     78.29143164
      0.06666670	      4.92998431	     -9.21349112	      3.06896897	      0.70642357	      1.03430833	      0.86000395	     14.23429553	      9.59392171	     -8.09996566	     21.11498489	      0.36852601	      4.42867769	     -9.47451831	     -7.32664259	     -5.10680819	    -13.41142526	      1.84233794	     56.60096830	      0.98787326	    -12.48589049	     -6.57627641	     -7.32664259	    -16.02439608	     14.93869789	     -0.03759344	      1.96941522	    -12.51488625	    -11.66889196	     20.64278141	     78.76355260	      9.64655507	     -9.45359198	     -6.23334258	     48.36599681	     77.95410359
      0.08333330	      5.17010068	     -9.33147779	      3.37611180	      0.70854907	      1.03879555	      0.86474093	     12.26004358	     10.10159176	     -7.97242092	     20.51599611	      0.35807168	      5.08433239	     -9.09950689	     -7.33020688	     -2.78501909	    -13.48947678	      2.84358266	     59.73142790	      1.04251008	    -12.64126062	     -7.55916448	     -7.33020688	    -16.18447897	     15.05646841	      0.45400439	      2.73395568	    -12.55988029	    -10.00360407	     20.07369444	     78.20371286	      8.66267440	     -8.97758731	     -6.05442064	     45.62069080	     76.73063509
      0.10000000	      5.59728770	     -9.28506916	      3.58623004	      0.71015107	      1.04271214	      0.86981146	      9.87771072	     10.54639744	     -7.73906943	     19.57457914	      0.34164086	      5.62366000	     -8.88075539	     -7.33213796	     -0.20622350	    -13.42649166	      3.77088694	     62.83013162	      1.09659267	    -11.38811883	     -9.20710098	     -7.33213796	    -16.73281764	     14.90094142	      0.79933751	      3.54462974	    -12.47625623	     -8.61779594	     20.11262027	     78.04092831	      7.54026471	     -8.68232473	     -6.14139825	     42.98765338	     75.90386675
      0.11666670	      6.33889371	     -8.94789428	      3.91770449	      0.70928728	      1.04680467	      0.87397949	      7.12091928	     10.69019848	     -7.69703803	     18.45349534	      0.32207425	      6.31900467	     -8.47016457	     -7.34271387	      2.47090405	    -13.14375944	      4.72418599	     65.54950391	      1.14405467	     -9.03825260	    -11.27310560	     -7.34271387	    -17.80231915	     14.37212808	      0.97134392	      4.39473785	    -12.28874813	     -7.17135048	     20.38390730	     77.83094319	      6.66313791	     -8.63904111	     -6.06107242	     40.73089735	     74.92230958
      0.13333330	      7.19351235	     -8.17443013	      4.33354673	      0.70587756	      1.05182838	      0.87651276	      4.31802546	     10.34287614	     -7.77453592	     17.26088260	      0.30125923	      7.07476556	     -8.04506465	     -7.35385709	      5.07293359	    -12.48279760	      5.49447382	     67.24551975	      1.17365573	     -6.40767086	    -13.27987892	     -7.35385709	    -19.08495056	     13.31224377	      0.94219214	      5.30828936	    -11.79033739	     -7.15495869	     20.70557095	     77.24399942	      6.05253848	     -8.63967625	     -6.22754892	     38.78773390	     74.24220484
      0.15000000	      7.91269174	     -7.21700928	      4.85212095	      0.70132813	      1.05697883	      0.87681609	      1.63403406	      9.72684065	     -8.16666377	     15.85372029	      0.27669962	      8.05044608	     -6.98538819	     -7.36451476	      7.56448497	    -11.62411206	      5.99300897	     67.47742700	      1.17770327	     -4.68684886	    -14.70834757	     -7.36451476	    -20.16117185	     12.10943042	      0.61931297	      6.17265499	    -11.32268385	     -7.05379278	     21.46491681	     76.49350310	      5.62268562	     -8.63177014	     -6.17410625	     36.99047865	     73.43145746
      0.16666670	      8.10144866	     -6.21790907	      5.05662277	      0.69644836	      1.06121763	      0.87562017	     -0.54693926	      8.95729451	     -8.38293709	     14.32979772	      0.25010215	      9.14722770	     -5.37345879	     -7.41416421	     10.19775573	    -10.69885774	      5.73745582	     66.39455641	      1.15880361	     -4.41852902	    -15.46175717	     -7.41416421	    -20.62898591	     10.80505463	      0.85364145	      6.76845703	    -11.09216883	     -8.20992153	     22.61435975	     80.33314951	      5.57197187	     -8.42215591	     -5.74216731	     34.42267793	     75.86586679
      0.18333330	      7.93890663	     -5.29135720	      5.04981953	      0.69206848	      1.06493877	      0.87421946	     -2.40975287	      8.19611757	     -8.37108971	     12.63419823	      0.22050836	      9.84086142	     -4.09882964	     -7.42181602	     12.75693832	     -9.81933759	      4.90470533	     64.43212766	      1.12455277	     -4.88856291	    -15.76825100	     -7.42181602	    -20.73636133	      9.61336814	      0.87570486	      7.72434419	    -11.12510257	     -7.88096579	     23.93007413	     79.42061729	      5.17531718	     -8.11008733	     -5.68406734	     32.15894619	     74.98408182
      0.20000000	      7.54765081	     -4.49539139	      4.95311257	      0.68891367	      1.06818053	      0.87338733	     -4.00690935	      7.51835617	     -8.43656906	     10.91801477	      0.19055531	     10.18103670	     -3.09571483	     -7.42278229	     15.05032132	     -9.02841205	      3.81819822	     61.74492726	      1.07765228	     -5.13403687	    -15.81525812	     -7.42278229	    -20.55191890	      8.59225387	      0.81288632	      8.79808281	    -11.32401038	     -7.62385117	     25.43229129	     79.79656015	      4.65755571	     -7.88250102	     -5.65264536	     29.79745407	     75.24551615
      0.21666670	      6.91146811	     -3.94474960	      4.68020220	      0.68701237	      1.06978656	      0.87295340	     -5.22380958	      7.05500470	     -8.46069403	      9.32145107	      0.16269001	     10.10034267	     -2.50719472	     -7.42276610	     17.13815396	     -8.49408979	      2.56519346	     58.49618593	      1.02095104	     -4.61046199	    -15.55705402	     -7.42276610	    -20.09182873	      7.77920068	      0.96217713	      9.89458917	    -11.60913333	     -7.55337234	     26.70070808	     79.89656982	      3.73345151	     -7.62652965	     -5.66389334	     28.25945403	     75.31630186
      0.23333330	      6.62825919	     -3.45169927	      4.54828559	      0.68602812	      1.06950611	      0.87240987	     -6.65996868	      6.66360694	     -8.79478397	      7.91867475	      0.13820695	     10.04493296	     -1.75338353	     -7.42397594	     18.52703002	     -7.92852909	      1.57292647	     54.66762408	      0.95413003	     -3.61087326	    -15.06557592	     -7.42397594	    -20.00011323	      7.17129342	      1.27530940	     10.50346489	    -12.17297442	     -7.34821561	     28.73816595	     80.26093549	      3.53457872	     -7.09876244	     -6.09752828	     24.89654483	     75.54760743
      0.25000000	      6.08364753	     -3.06590962	      4.38453066	      0.68572760	      1.06693549	      0.87259942	     -7.64514204	      6.34745694	     -8.88769663	      6.78050017	      0.11834205	     10.02596504	     -1.26233032	     -7.42876939	     20.07930128	     -7.46340096	      0.63223395	     50.65368045	      0.88407350	     -2.35414224	    -14.41112784	     -7.42876939	    -19.59839326	      6.58302185	      2.13499539	     10.37416283	    -12.74121306	     -8.10172422	     31.00849860	     80.29730572	      3.13231709	     -6.61290506	     -6.89801707	     22.21208514	     75.82606631
      0.26666670	      5.58853105	     -2.69346204	      4.43389729	      0.68458258	      1.06371970	      0.87378627	     -8.62664680	      6.06151098	     -8.87137384	      5.73645997	      0.10012011	     10.33861962	     -0.84565985	     -7.43142476	     21.60834565	     -6.93885710	     -0.08325626	     46.41679415	      0.81012589	     -1.03765242	    -13.31903693	     -7.43142476	    -19.29513454	      6.08480868	      2.07389310	     10.54861633	    -12.92213177	     -8.72904574	     32.80393283	     80.24516828	      1.77942142	     -6.42835550	     -7.51288823	     20.85466330	     75.87732515
